<svg xmlns="http://www.w3.org/2000/svg" width="224" height="219" viewBox="0 0 224 219" fill="none">
<path d="M215.6 203.1H7.9C3.5 203.1 0 206.7 0 211C0 215.3 3.5 218.9 7.9 218.9H215.6C220 218.9 223.5 215.3 223.5 211C223.5 206.7 220 203.1 215.6 203.1Z" fill="#4A6CF7"/>
<path d="M35.3 190.6H66.6C69.2 190.6 71.4 188.5 71.4 185.8V127.3C71.4 124.7 69.3 122.5 66.6 122.5H35.3C32.7 122.5 30.5 124.6 30.5 127.3V185.8C30.5 188.5 32.6 190.6 35.3 190.6Z" fill="#4A6CF7"/>
<path d="M95.5002 149.3C92.9002 149.3 90.7002 151.4 90.7002 154.1V185.9C90.7002 188.5 92.8002 190.7 95.5002 190.7H126.8C129.4 190.7 131.6 188.6 131.6 185.9V154C131.6 151.4 129.5 149.2 126.8 149.2H95.5002V149.3Z" fill="#4A6CF7"/>
<path d="M155.8 89.8003C153.2 89.8003 151 91.9003 151 94.6003V185.9C151 188.5 153.1 190.7 155.8 190.7H187.1C189.7 190.7 191.9 188.6 191.9 185.9V94.6003C191.9 92.0003 189.8 89.8003 187.1 89.8003H155.8Z" fill="#4A6CF7"/>
<path d="M47.3999 68.6001L101.6 112.4C102.8 113.3 104.2 113.8 105.6 113.8C107.4 113.8 109.1 113.1 110.4 111.6L179.6 32.0001L190.3 40.9001C191.2 41.6001 192.2 42.0001 193.4 42.0001C194 42.0001 194.7 41.9001 195.3 41.6001C196.9 40.9001 198.1 39.3001 198.2 37.5001L200.4 5.00014C200.5 3.50014 199.9 2.00014 198.7 1.00014C197.5 0.000144601 196 -0.299855 194.5 0.000144549L162.9 8.00014C161.2 8.40014 159.8 9.80015 159.4 11.6001C159 13.4001 159.6 15.2001 161 16.3001L170 23.8001L105 98.6001L55.5999 58.6001C52.8999 56.4001 48.8999 56.8001 46.6999 59.5001C44.2999 62.4001 44.6999 66.4001 47.3999 68.6001Z" fill="#4A6CF7"/>
</svg>